<?xml version="1.0" standalone="no"?>
<!DOCTYPE svg PUBLIC "-//W3C//DTD SVG 20010904//EN"
 "http://www.w3.org/TR/2001/REC-SVG-20010904/DTD/svg10.dtd">
<svg version="1.0" xmlns="http://www.w3.org/2000/svg"
 width="512.000000pt" height="512.000000pt" viewBox="0 0 512.000000 512.000000"
 preserveAspectRatio="xMidYMid meet">
<metadata>
Created by potrace 1.14, written by Peter Selinger 2001-2017
</metadata>
<g transform="translate(0.000000,512.000000) scale(0.100000,-0.100000)"
fill="#000000" stroke="none">
<path d="M2383 4815 c-197 -35 -375 -130 -524 -276 -70 -69 -77 -74 -144 -84
-115 -17 -272 -79 -382 -152 -32 -21 -90 -69 -129 -108 -229 -226 -319 -564
-241 -900 8 -31 43 -130 55 -150 7 -13 4 -30 -12 -64 -29 -65 -28 -177 3 -246
12 -27 26 -52 31 -55 7 -5 18 -60 55 -280 2 -14 23 -133 45 -265 23 -132 43
-256 46 -275 2 -19 8 -55 14 -80 5 -25 25 -144 45 -265 19 -121 37 -229 39
-240 2 -11 9 -54 16 -95 6 -41 14 -86 16 -100 5 -25 28 -165 38 -230 3 -19 8
-46 10 -60 5 -28 23 -130 30 -175 3 -16 15 -88 27 -160 11 -72 22 -137 24
-145 2 -8 4 -23 4 -33 1 -11 16 -33 34 -51 l32 -32 1022 0 1023 1 25 25 c23
24 36 72 59 215 7 45 38 228 41 247 2 9 7 38 11 65 5 26 9 50 9 53 1 3 5 30 9
60 5 30 10 64 12 75 8 38 34 190 40 230 3 22 21 132 40 245 19 113 37 216 39
230 11 68 74 449 78 475 3 17 14 84 25 150 12 66 23 136 26 155 3 19 10 58 15
85 5 28 12 70 16 94 4 26 18 59 35 80 44 55 62 106 60 175 -1 34 -2 77 -2 96
0 19 16 80 35 135 121 339 34 720 -221 969 -148 145 -319 228 -547 267 -55 9
-73 17 -90 38 -135 175 -337 302 -560 352 -75 16 -251 19 -332 4z"/>
</g>
</svg>
