<svg version="1.2" xmlns="http://www.w3.org/2000/svg" viewBox="0 0 516 173" width="516" height="173">
	<title>matiduda-svg</title>
	<style>
		.s0 { fill: #000000 } 
	</style>
	<path id="Layer" fill-rule="evenodd" class="s0" d="m28 137v-56.9l14.3-0.8 0.8 9.8h1.4q2-2.7 4.6-5.1 2.6-2.5 6-4 3.5-1.4 7.9-1.4 6.5 0 10.1 3.3 3.1 2.7 4.5 7.4h0.9q2-2.8 4.8-5.3 2.8-2.4 6.3-4 3.6-1.4 8-1.4 8.5 0 12.7 5.1 4.2 5.1 4.2 15v38.3h-17v-32.8q0-5-1.6-7.6-1.5-2.5-5.6-2.5-2.3 0-4.3 1-1.9 1-3.6 2.7-1.4 1.5-2.5 3.2v36h-17v-32.8q0-5-1.6-7.5-1.6-2.6-5.6-2.6-2.3 0-4.2 1-2 1-3.6 2.8-1.6 1.6-2.8 3.6v35.5zm110.5 1.4q-5 0-8.6-2-3.6-2.1-5.7-5.8-2-3.8-2-9 0-4.8 1.7-8 1.7-3.3 4.4-5.4 2.7-2 6-3.1 3.2-1.1 6.2-1.6l15.9-2.5q0.1-3.3-1.3-5.1-1.3-1.9-4-2.6-2.5-0.8-6.1-0.8-2 0-4.2 0.4-2.3 0.3-4.8 0.9-2.5 0.6-5.1 1.5-2.7 1-5.3 2.3l-0.8-14.6 4.8-1.5q2.7-0.8 6-1.4 3.1-0.7 6.7-1.1 3.5-0.4 7.3-0.4 7.1 0 12.1 2 5.1 2.1 7.8 6.6 2.7 4.4 2.7 11.6v38.2h-14.6l-1-7.6h-1.3q-1.6 2.2-4 4.3-2.3 2-5.5 3.4-3.2 1.3-7.3 1.3zm6.8-13.2q2 0 4-1 2-0.9 3.7-2.6 1.7-1.8 3-4.1v-8.8l-1.9 1-3 1-5.6 1.1q-2 0.4-3.6 1.4-1.4 1-2.3 2.5-0.8 1.5-0.8 3.5 0 3.3 2 4.6 2 1.4 4.4 1.4zm61.8 13.3q-6.3 0-10.8-1.8-4.5-2-6.9-6.2-2.3-4.2-2.3-11.1v-26.5h-9.1v-12.8h9.1v-18.5l16.8-3v21.5h17.1v12.9h-17.1v21q0 5.2 1.8 8 2 2.6 6.3 2.6 1.8 0 4-0.6 2.2-0.7 4.2-2.1l1 13.8q-1.6 0.9-3.8 1.5-2.3 0.7-5 1-2.7 0.3-5.3 0.3zm38.9-1.5h-17v-56.9l17-0.5zm-8.6-65.7q-4.8 0-7.6-2.2-2.8-2.3-2.8-7.3 0-4.6 2.8-7 2.8-2.4 7.7-2.4 4.8 0 7.5 2.5 2.8 2.5 2.8 6.9 0 5-2.7 7.3-2.8 2.2-7.7 2.2z"/>
	<path id="Layer" fill-rule="evenodd" class="s0" d="m277.8 138.5q-7.8 0-12.8-4.2-5.1-4.2-7.6-11-2.4-6.9-2.4-14.8 0-8.5 2.6-15.3 2.6-6.8 7.7-10.7 5.1-4 12.7-4 3.4 0 6.2 1 2.9 0.8 5 2.5 2.3 1.6 3.8 4h1.4v-32.7l17-1.5v85.2h-14.5l-1-7.5h-1.2q-2 3-4.6 5-2.5 2-5.6 3-3 1-6.7 1zm6.5-14.4q2.3 0 4.2-0.8 2-0.8 3.4-2.3 1.4-1.4 2.5-3.3v-19.4q-1.2-1.6-2.8-2.7-1.5-1.2-3.4-1.7-1.9-0.7-3.9-0.7-4 0-6.6 2.1-2.7 2.1-4 5.7-1.3 3.5-1.3 7.6 0 4 1.2 7.5 1.3 3.5 4 5.7 2.6 2.3 6.7 2.3zm54.1 14.4q0.1 0 0.1 0h-0.1q0 0 0 0zm-12.9-5q-4.3-5.1-4.3-15.1v-38.4l17-0.5v33.7q0 5 1.6 7.5 1.7 2.5 6 2.5 2.3 0 4.3-1 2-1 3.7-2.6 1.7-1.7 3-3.8v-35.7h17v56.9h-14.2l-0.8-9h-1.5q-1.8 2.7-4.6 5.1-2.7 2.4-6.3 4-3.5 1.4-8 1.4-8.5 0-12.9-5zm79.3 5q-7.8 0-12.9-4.2-5-4.2-7.5-11-2.5-6.9-2.5-14.8 0-8.5 2.6-15.3 2.6-6.8 7.7-10.7 5.2-4 12.8-4 3.3 0 6.2 1 2.8 0.8 5 2.5 2.2 1.6 3.7 4h1.4v-32.7l17-1.5v85.2h-14.4l-1-7.5h-1.3q-2 3-4.6 5-2.5 2-5.6 3-3 1-6.6 1zm6.4-14.4q2.4 0 4.2-0.8 2-0.8 3.4-2.3 1.5-1.4 2.5-3.3v-19.4q-1.1-1.6-2.7-2.7-1.6-1.2-3.5-1.7-1.8-0.7-3.8-0.7-4 0-6.7 2.1-2.6 2.1-4 5.7-1.3 3.5-1.3 7.6 0 4 1.2 7.5 1.4 3.5 4 5.7 2.7 2.3 6.7 2.3zm51.3 14.3q-4.9 0-8.5-2-3.7-2.1-5.7-5.8-2-3.8-2-9 0-4.8 1.6-8 1.7-3.3 4.4-5.4 2.8-2 6-3.1 3.2-1.1 6.3-1.6l15.8-2.5q0.1-3.3-1.2-5.1-1.4-1.9-4-2.6-2.6-0.8-6.2-0.8-2 0-4.2 0.4-2.3 0.3-4.8 0.9-2.4 0.6-5.1 1.5l-5.3 2.2-0.8-14.5 4.8-1.5 6-1.5q3.2-0.6 6.7-1 3.6-0.4 7.3-0.4 7.2 0 12.2 2 5 2.1 7.7 6.6 2.7 4.4 2.7 11.6v38.2h-14.5l-1.1-7.6h-1.3q-1.6 2.2-3.9 4.3-2.3 2-5.6 3.4-3.2 1.3-7.3 1.3zm6.8-13.2q2 0 4-1 2-0.9 3.7-2.6 1.7-1.8 3-4.2v-8.7l-1.8 1-3.1 1-5.6 1.1q-2 0.4-3.5 1.4-1.5 1-2.4 2.5-0.8 1.5-0.8 3.5 0 3.3 2 4.6 2 1.4 4.5 1.4z"/>
</svg>